<svg xmlns="http://www.w3.org/2000/svg" viewBox="0 0 212.6 140.96"><defs><style>.cls-1{fill:#231815;}</style></defs><title>资源 3</title><g id="图层_2" data-name="图层 2"><g id="图层_1-2" data-name="图层 1"><g id="_编组_" data-name="&lt;编组&gt;"><g id="_编组_2" data-name="&lt;编组&gt;"><g id="_编组_3" data-name="&lt;编组&gt;"><rect id="_矩形_" data-name="&lt;矩形&gt;" class="cls-1" x="98.89" y="27.63" width="14.83" height="14.83" rx="7.41" ry="7.41"/></g><g id="_编组_4" data-name="&lt;编组&gt;"><g id="_编组_5" data-name="&lt;编组&gt;"><path id="_路径_" data-name="&lt;路径&gt;" class="cls-1" d="M141.73,35a35.47,35.47,0,0,1-1.32,9.62,4.27,4.27,0,0,1-6.25,2.55h0a4.29,4.29,0,0,1-2-4.85A27.06,27.06,0,0,0,130.4,23,27.23,27.23,0,0,0,111.87,8.47a4.3,4.3,0,0,1-3.4-4.19h0A4.27,4.27,0,0,1,113.65.1a35.76,35.76,0,0,1,21.16,13.77,35,35,0,0,1,3,4.85A35.4,35.4,0,0,1,141.73,35Z"/></g><g id="_编组_6" data-name="&lt;编组&gt;"><path id="_路径_2" data-name="&lt;路径&gt;" class="cls-1" d="M88.49,65.32a35.34,35.34,0,0,1-7.68-5.95,4.28,4.28,0,0,1,.93-6.69h0a4.27,4.27,0,0,1,5.19.71,27.15,27.15,0,0,0,39.43-.68,4.3,4.3,0,0,1,5.33-.85h0a4.28,4.28,0,0,1,1,6.58,35.77,35.77,0,0,1-22.51,11.44,34.94,34.94,0,0,1-5.7.17A35.36,35.36,0,0,1,88.49,65.32Z"/></g><g id="_编组_7" data-name="&lt;编组&gt;"><path id="_路径_3" data-name="&lt;路径&gt;" class="cls-1" d="M88.7,3.9a35.46,35.46,0,0,1,9-3.67A4.28,4.28,0,0,1,103,4.38h0a4.27,4.27,0,0,1-3.2,4.14A26.49,26.49,0,0,0,93,11.31a27,27,0,0,0-9,8.38A27.35,27.35,0,0,0,80.68,43a4.28,4.28,0,0,1-1.92,5h0a4.28,4.28,0,0,1-6.22-2.39,35.79,35.79,0,0,1,1.35-25.21A35.49,35.49,0,0,1,88.7,3.9Z"/></g></g></g><g id="_编组_8" data-name="&lt;编组&gt;"><g id="_编组_9" data-name="&lt;编组&gt;"><path id="_路径_4" data-name="&lt;路径&gt;" class="cls-1" d="M71.4,140.51c-12.78,0-23.18-10.1-23.18-22.52s10.4-22.5,23.18-22.5,23.18,10.1,23.18,22.5a3.66,3.66,0,0,1-3.66,3.66H63.57a3.66,3.66,0,1,1,0-7.31H86.8a15.77,15.77,0,0,0-15.4-11.53c-8.75,0-15.86,6.81-15.86,15.18s7.11,15.2,15.86,15.2a16.51,16.51,0,0,0,7.73-1.92,15.85,15.85,0,0,0,5.61-5.05,3.66,3.66,0,1,1,6.06,4.1,23,23,0,0,1-8.22,7.4A23.81,23.81,0,0,1,71.4,140.51Z"/></g><g id="_编组_10" data-name="&lt;编组&gt;"><path id="_路径_5" data-name="&lt;路径&gt;" class="cls-1" d="M123.93,140.51c-12.78,0-23.18-10.1-23.18-22.52s10.4-22.5,23.18-22.5,23.18,10.1,23.18,22.5a3.66,3.66,0,0,1-3.66,3.66H116.1a3.66,3.66,0,1,1,0-7.31h23.22a15.75,15.75,0,0,0-15.39-11.53c-8.75,0-15.86,6.81-15.86,15.18s7.11,15.2,15.86,15.2a16,16,0,0,0,13.33-7,3.66,3.66,0,1,1,6.07,4.09A23.28,23.28,0,0,1,123.93,140.51Z"/></g><g id="_编组_11" data-name="&lt;编组&gt;"><path id="_路径_6" data-name="&lt;路径&gt;" class="cls-1" d="M189.42,140.51c-12.79,0-23.18-10.1-23.18-22.52s10.39-22.5,23.18-22.5,23.18,10.1,23.18,22.5a3.66,3.66,0,0,1-3.66,3.66H181.59a3.66,3.66,0,1,1,0-7.31h23.22a15.76,15.76,0,0,0-15.39-11.53c-8.75,0-15.86,6.81-15.86,15.18s7.11,15.2,15.86,15.2a16,16,0,0,0,13.33-7,3.66,3.66,0,0,1,6.07,4.09A23.28,23.28,0,0,1,189.42,140.51Z"/></g><g id="_编组_12" data-name="&lt;编组&gt;"><path id="_路径_7" data-name="&lt;路径&gt;" class="cls-1" d="M157.14,141a3.66,3.66,0,0,1-3.66-3.66V91.9a3.66,3.66,0,0,1,7.32,0v45.4A3.66,3.66,0,0,1,157.14,141Z"/></g><g id="_编组_13" data-name="&lt;编组&gt;"><path id="_路径_8" data-name="&lt;路径&gt;" class="cls-1" d="M15.53,141A15.34,15.34,0,0,1,0,125.84a3.66,3.66,0,0,1,7.32,0,8,8,0,0,0,8.21,7.8,3.66,3.66,0,0,1,0,7.32Z"/></g><g id="_编组_14" data-name="&lt;编组&gt;"><path id="_路径_9" data-name="&lt;路径&gt;" class="cls-1" d="M27.06,141a3.66,3.66,0,1,1,0-7.32,7.81,7.81,0,1,0,0-15.59H15.53a15.13,15.13,0,1,1,0-30.24,3.66,3.66,0,1,1,0,7.32,7.81,7.81,0,1,0,0,15.6H27.06a15.12,15.12,0,1,1,0,30.23Z"/></g><g id="_编组_15" data-name="&lt;编组&gt;"><path id="_路径_10" data-name="&lt;路径&gt;" class="cls-1" d="M38.92,106.59a3.66,3.66,0,0,1-3.66-3.66,8,8,0,0,0-8.2-7.8,3.66,3.66,0,0,1,0-7.32,15.34,15.34,0,0,1,15.52,15.12A3.66,3.66,0,0,1,38.92,106.59Z"/></g></g></g></g></g></svg>