<svg xmlns="http://www.w3.org/2000/svg" viewBox="0 0 304.49 70.87"><defs><style>.cls-1{fill:#FFFFFF;}</style></defs><title>资源 1</title><g id="图层_2" data-name="图层 2"><g id="图层_1-2" data-name="图层 1"><g id="_编组_" data-name="&lt;编组&gt;"><g id="_编组_2" data-name="&lt;编组&gt;"><g id="_编组_3" data-name="&lt;编组&gt;"><path id="_路径_" data-name="&lt;路径&gt;" class="cls-1" d="M161.74,61.84c-12.92,0-23.43-10.21-23.43-22.76s10.51-22.75,23.43-22.75,23.44,10.2,23.44,22.75a3.7,3.7,0,0,1-3.7,3.7H153.83a3.7,3.7,0,0,1,0-7.4h23.48a16,16,0,0,0-15.57-11.65c-8.84,0-16,6.88-16,15.35s7.2,15.36,16,15.36a16.58,16.58,0,0,0,7.81-1.94,16,16,0,0,0,5.68-5.1,3.7,3.7,0,1,1,6.13,4.14A23.35,23.35,0,0,1,173.05,59,24,24,0,0,1,161.74,61.84Z"/></g><g id="_编组_4" data-name="&lt;编组&gt;"><path id="_路径_2" data-name="&lt;路径&gt;" class="cls-1" d="M214.85,61.84c-12.93,0-23.44-10.21-23.44-22.76s10.51-22.75,23.44-22.75,23.43,10.2,23.43,22.75a3.69,3.69,0,0,1-3.7,3.7H206.93a3.7,3.7,0,0,1,0-7.4h23.48a15.93,15.93,0,0,0-15.56-11.65c-8.85,0-16,6.88-16,15.35s7.19,15.36,16,15.36a16.17,16.17,0,0,0,13.48-7,3.7,3.7,0,0,1,6.14,4.13A23.56,23.56,0,0,1,214.85,61.84Z"/></g><g id="_编组_5" data-name="&lt;编组&gt;"><path id="_路径_3" data-name="&lt;路径&gt;" class="cls-1" d="M281.06,61.84c-12.93,0-23.44-10.21-23.44-22.76s10.51-22.75,23.44-22.75,23.43,10.2,23.43,22.75a3.69,3.69,0,0,1-3.7,3.7H273.14a3.7,3.7,0,1,1,0-7.4h23.48a15.93,15.93,0,0,0-15.56-11.65c-8.85,0-16,6.88-16,15.35s7.19,15.36,16,15.36a16.17,16.17,0,0,0,13.48-7,3.7,3.7,0,0,1,6.14,4.13A23.56,23.56,0,0,1,281.06,61.84Z"/></g><g id="_编组_6" data-name="&lt;编组&gt;"><path id="_路径_4" data-name="&lt;路径&gt;" class="cls-1" d="M248.43,62.3a3.7,3.7,0,0,1-3.7-3.7V12.7a3.7,3.7,0,1,1,7.4,0V58.6A3.7,3.7,0,0,1,248.43,62.3Z"/></g><g id="_编组_7" data-name="&lt;编组&gt;"><path id="_路径_5" data-name="&lt;路径&gt;" class="cls-1" d="M105.25,62.3A15.51,15.51,0,0,1,89.56,47,3.7,3.7,0,1,1,97,47a8.11,8.11,0,0,0,8.29,7.89,3.7,3.7,0,1,1,0,7.4Z"/></g><g id="_编组_8" data-name="&lt;编组&gt;"><path id="_路径_6" data-name="&lt;路径&gt;" class="cls-1" d="M116.91,62.3a3.7,3.7,0,0,1,0-7.4,7.9,7.9,0,1,0,0-15.77H105.25A15.5,15.5,0,0,1,89.56,23.85,15.5,15.5,0,0,1,105.25,8.57a3.7,3.7,0,1,1,0,7.4A8.1,8.1,0,0,0,97,23.85a8.1,8.1,0,0,0,8.29,7.88h11.66a15.29,15.29,0,1,1,0,30.57Z"/></g><g id="_编组_9" data-name="&lt;编组&gt;"><path id="_路径_7" data-name="&lt;路径&gt;" class="cls-1" d="M128.91,27.55a3.69,3.69,0,0,1-3.7-3.7,8.11,8.11,0,0,0-8.3-7.88,3.7,3.7,0,0,1,0-7.4,15.51,15.51,0,0,1,15.7,15.28A3.7,3.7,0,0,1,128.91,27.55Z"/></g></g><g id="_编组_10" data-name="&lt;编组&gt;"><g id="_编组_11" data-name="&lt;编组&gt;"><rect id="_矩形_" data-name="&lt;矩形&gt;" class="cls-1" x="28.33" y="27.94" width="14.99" height="14.99" rx="7.49" ry="7.49"/></g><g id="_编组_12" data-name="&lt;编组&gt;"><g id="_编组_13" data-name="&lt;编组&gt;"><path id="_路径_8" data-name="&lt;路径&gt;" class="cls-1" d="M71.64,35.35a35.81,35.81,0,0,1-1.33,9.72A4.32,4.32,0,0,1,64,47.65h0a4.33,4.33,0,0,1-2-4.9,27.43,27.43,0,0,0,1-7.4,27.41,27.41,0,0,0-5.9-17A27.45,27.45,0,0,0,41.45,8.56,4.33,4.33,0,0,1,38,4.33h0A4.32,4.32,0,0,1,43.26.1,36.15,36.15,0,0,1,64.65,14a36.8,36.8,0,0,1,3,4.91A35.7,35.7,0,0,1,71.64,35.35Z"/></g><g id="_编组_14" data-name="&lt;编组&gt;"><path id="_路径_9" data-name="&lt;路径&gt;" class="cls-1" d="M17.81,66a35.81,35.81,0,0,1-7.75-6A4.32,4.32,0,0,1,11,53.26h0a4.32,4.32,0,0,1,5.25.71,27.34,27.34,0,0,0,23.54,8,27.46,27.46,0,0,0,16.33-8.64,4.33,4.33,0,0,1,5.38-.86h0a4.32,4.32,0,0,1,1,6.65A36.2,36.2,0,0,1,39.78,70.65a36.09,36.09,0,0,1-22-4.61Z"/></g><g id="_编组_15" data-name="&lt;编组&gt;"><path id="_路径_10" data-name="&lt;路径&gt;" class="cls-1" d="M18,3.94A36.25,36.25,0,0,1,27.12.23a4.32,4.32,0,0,1,5.39,4.19h0a4.31,4.31,0,0,1-3.24,4.19,27.39,27.39,0,0,0-16,11.3A26.49,26.49,0,0,0,10.61,25a27.38,27.38,0,0,0-.68,18.46A4.34,4.34,0,0,1,8,48.57H8A4.32,4.32,0,0,1,1.7,46.15,36.22,36.22,0,0,1,5.79,15.58,35.72,35.72,0,0,1,18,3.94Z"/></g></g></g></g></g></g></svg>